<?xml version="1.0" encoding="UTF-8"?><svg id="b" xmlns="http://www.w3.org/2000/svg" viewBox="0 0 496.1113273167 232.666049318"><g id="c"><g id="d"><path d="M230.3628327417,105.9886827486c-24.9341233494-.7505434044-49.8825840605-.856534974-74.825309827-.3036548317-1.2805012525.0214885581-2.3146621512-.9267181084-2.3146621512-2.1298850302.0071686809-6.9783524105.0143198772-13.9638560172.0143198772-20.9493683663,0-1.2031669218,1.0398783589-2.2015019007,2.3218133475-2.2229904588,19.322235166-.3251433897,38.6501877921-.3466232055,57.9724229581-.0773430729,1.2805012525.0143198772,2.3146621512-.9410467278,2.3146621512-2.1442049074-.0071686809-7.6787587601-.0143198772-15.3661155661-.0143198772-23.0448786974,0-1.2031625507-1.032709678-2.1871776524-2.3146621512-2.2015019007-19.3150664851-.1833390137-38.6301329702-.163288563-57.938048259.0501326836-1.2805012525.0214841869-2.3146621512-.9482066664-2.3146621512-2.1513692171.0071686809-6.9783480393.0143198772-13.9638560172.0143198772-20.9493661807,0-1.2031625507,1.032709678-2.187179838,2.3146621512-2.1943397765,24.8997486503-.1489621291,49.798081049-.120315818,74.6978296993.0773452585,1.2805012525.0143242483,2.3146621512-.9553687906,2.3146621512-2.1656934655-.0071686809-7.7074072568-.0143198772-15.4219766377-.0214885581-23.1365460187,0-1.2103250846-1.032709678-2.1871792916-2.3146621512-2.1871792916h-76.9623635381v-.0071616802h-26.7890107869c-1.2733500562,0-2.3146534089.9840157505-2.3146534089,2.2015025496-.0143198772,8.500921767-.0214885581,16.9932514984-.0358084353,25.4870127804-.0143198772,8.5209760425-.0214885581,17.0362215114-.0358084353,25.5500354298-.0143198772,9.2285488875-.0214885581,18.4585315111-.0358084353,27.6870847697-.0143198772,8.5138139183-.0214885581,17.0362215114-.0358084353,25.5500354298-.0143198772,8.4937590964-.0214885581,18.4012345178-.0358084353,26.8950023565,0,1.2103268604,1.0327184203,2.1442049074,2.3146534089,2.074021773,34.6596978643-1.8548786952,69.3752589858-2.115565153,104.0478429911-.799246723,1.2805012525.0501283125,2.3146621512-.8923434093,2.3146621512-2.0955103311-.0071686809-7.7145671954-.0143198772-16.8371245132-.0214885581-24.5516917086,0-1.2103268604-1.0398783589-2.2229904588-2.3218133475-2.2573651579l.0043361777-.0028762146Z" style="fill:#fff;"/><path d="M112.4427879411.2635583184H42.8340528869c-13.5040769324,0-27.0081538647.0071616802-40.5050708585.0143233775-1.2962667499.0143233604-2.3289820284,1.0971704688-2.3289820284,2.4349736322v25.6417060294c0,1.337802617,1.0327152785,2.3848409144,2.3074956559,2.3433040912,12.7191566433-.4311327738,25.4368795504-.8135666001,38.1631961323-1.1601941768,1.2733500562-.0358084353,2.3074934703.9768551631,2.3074934703,2.2573629723-.0429683739,35.8900795466-.0916716924,75.716215129-.1346400663,111.6077371541,0,1.2805099948,1.0541982361,2.3074934703,2.3074934703,2.0310533992,7.9766873894-1.7488871256,16.208330663-3.4189886997,24.445700139-4.8412986994,1.2661857464-.2191518201,2.3146577801-1.2532952343,2.3146577801-2.5051567324.0572926222-35.0478644498.1131558794-71.986411659.1704485016-107.0342804799,0-1.2532952343,1.0398783589-2.286011469,2.3146577801-2.3146577801,12.732049341-.2621180084,25.4655236759-.4812654574,38.197573017-.6517139589,1.2805099948-.0214841869,2.3146534089-1.019823537,2.3146534089-2.2430409095.0143198772-7.7919157323.0214885581-15.5852630151.0358084353-23.3771798402l.0071599386.0071615778c0-1.217486799-1.0327184203-2.2086642981-2.3074934703-2.2086642981l-.0014162516-.0014353583Z" style="fill:#fff;"/><path d="M327.326340495,73.2411474593c-.5442952099-.8207309099-.5442952099-1.8691985724,0-2.6183126117,15.4577741451-21.2329683761,30.9155832594-43.2093245891,46.4077321037-66.381679043,1.0900241559-1.6271353859-.0701831344-3.828637833-2.0310446569-3.835799684-10.3830124907-.0429701155-20.7660249814-.0845078949-31.1490374722-.1203163302-.8207265387,0-1.5927759858.3895957798-2.0453820186,1.0542003875-9.5551172711,13.8292178633-19.1031008305,27.284596941-28.6424470036,40.4764209958-.9696952245,1.337802617-3.0995627701,1.2661857464-4.0764266755-.1274801277-9.7169895825-13.8650265718-19.4425466128-27.3905876911-29.1666873916-40.6970035469-.4597747137-.62306676-1.1959982409-.9911774991-1.9751988843-.9911774991h-31.1762609749c-1.9035820138.0845079035-2.9792688079,2.0238927776-1.917901891,3.4676887399,15.5995916346,21.1828370584,31.2192206065,42.7208983735,46.8331321183,65.0854124297.5442952099.7849224746.5514464062,1.8047460116,0,2.5409651676-15.506486206,20.8791808608-31.0358947062,41.2770940786-46.5853405438,61.6320476649-1.0900066713,1.4294699383.0845030115,3.4748519569,2.0453820186,3.5736835879,10.4388757479.5170717071,20.8720165511,1.1816783638,31.2965724218,1.9895187615.8207265387.0630231958,1.578438624-.2477915745,2.0382133378-.8422150968,9.5694371483-12.4570342637,19.1231206832-25.0057489622,28.6782729235-37.7664467999.991166298-1.3234783686,3.0780916966-1.1745184252,4.0764266755.3108147703,9.5894919702,14.2689445851,19.1732839648,28.9188870748,28.7355699168,44.0730238728.4526060328.7218949077,1.217486799,1.217486799,2.0310446569,1.3306383072,10.3830124907,1.4437985577,20.7517225888,3.0293883781,31.0988916751,4.762513148,1.9536928416.332294586,3.1139001319-1.6772615128,2.0310446569-3.4963317727-15.4434717525-25.847964059-30.9571266394-50.1661840703-46.5065549924-73.4230459069v.0028805858Z" style="fill:#fff;"/><path d="M490.0756787752,55.5532141745s-.4311349594-6.3910888267-.7505434044-11.1679349653c-.2764313289-4.1337236689-3.3760290682-7.6014156872-7.4810954981-8.1671885272-6.2005942456-.8565371596-13.4338981691.8278930341-14.9550223152,1.2461331101-7.849216004.7075750305-28.8415614864,1.3306426784-33.9449628952-4.1824248019-4.9257929686-5.3225663424-8.9950859324-6.8222237861-11.2753559-7.2189818608V4.4817920848c0-1.7273988407-1.393661503-3.1210633488-3.1210688128-3.1210633488h-29.9530217466c-1.7274073098,0-3.1210688128,1.393664235-3.1210688128,3.1210633488v52.2889088887c0,1.599922811-1.2948386143,2.8947526829-2.8947483118,2.8947526829h-30.8511001006c-3.5736748456,0-5.5918508461,4.1265637303-3.3831977491,6.9353752943,7.9910160088,10.1853492287,16.1438693599,14.4522879699,18.0130766746,23.3069901491.3895915794,1.8333901371,1.2031494372,3.5593549684,2.4979880515,4.9186505146,3.5880122074,3.7727805861,9.066702803,7.0356406615,13.1001523623,9.1440458759,3.652460397,1.9107419524,8.1600220319.7075750305,10.3973498525-2.7529483069,1.6700928319-2.5839335415,3.559372453-5.1306336539,6.3065858152-5.0604505195,17.0992272226,8.0196557632,22.1110093927,25.1332290899,29.4144964507,40.2014116557,2.5123254133,5.1736020277,9.0881738765,10.7081558805,14.7358704951,12.0531228072,1.5569675505.3752717022,3.0924290584.5586150871,4.6636990015.5170717071,3.1425398863-.0916716924,5.5846821652-2.8102453002,5.3655303451-5.9456339902-1.889244652-26.7317137935,27.8861686545-43.9383838065,37.9153980011-50.3079840752,2.2717025197-1.4437985577,3.9145893333-3.7011637156,4.5577074319-6.3209056924v.0071599386c3.1912519471-12.994169535-4.1337411534-20.1716102014-5.238067702-30.8095785764l.001398767.0014337362ZM479.3331481956,50.1375467747l-20.3549623286,45.6901340333c-.2735638565.6159033381-.8851747284,1.0126635984-1.5598000537,1.0126635984h-5.0160484095c-.6746253253,0-1.284802461-.3967602603-1.5598000537-1.0126635984l-16.497652504-37.0316526377c-.1690060231-.3810022758-.5471626822-.6259307491-.9639602798-.6259307491h-16.4203006888c-.5829711175,0-1.0556494568.472669597-1.0556494568,1.0556319722v23.1050387919c0,1.4108488525.2119831392,3.257133873,1.2217880075,4.0406269825,1.5139904344,1.1644910142,4.36576163,1.4652783735,6.6130906346.9582340774.8035566738-.1704485016,1.7030337948-.4855644803,2.7128386631-.9195581698l2.9950049367-1.2934048781.0071686809-.0028674724c.5657662834.0057262024,1.0241072609.4583497199,1.0427458312,1.0212572731v7.5312325528c0,.6488530433-.37812169,1.2389753571-.9682614883,1.5096804836l-.310806028.1418000049c-1.687297666.7677307539-2.9663651823,1.2060256519-4.2296965698,1.4953606064-1.2962723504.2964948931-2.720007344.4468885727-4.2397327231.4468885727-1.9250530873,0-3.7641869114-.2664126602-5.4715219147-.7935117782-1.8262301985-.5629075533-3.4519471472-1.4753057845-4.8312712884-2.7128474054-1.3893602945-1.2432678233-2.4879868674-2.818838975-3.2600013453-4.6780101364-.7519771406-1.809042849-1.1315325667-3.9188730573-1.1315325667-6.2693436438v-24.6204498491h-.0071686809v1.0355815215c0-.5629075533-.4497385605-1.0040699236-1.0040699236-1.0355815215h-4.0119784859c-.5944060377,0-1.0756867941-.4812632718-1.0756867941-1.0756867941v-7.3794007658c0-.5944191512.4812807564-1.0756867941,1.0756867941-1.0756867941h3.9589652165v-.0071599386c.5844048537,0,1.0570482238-.4741033332,1.0570482238-1.0570657084v1.0656593832h.0071686809v-12.3825564776c0-.5829623752.4726783393-1.0556319722,1.0556494568-1.0556319722h7.7360557535c.5829711175,0,1.0556494568.4726717826,1.0556494568,1.0556319722v11.3269245053c0,.5829623752.4726783393,1.0556319722,1.0556494568,1.0556319722h23.2597118244c.4239662785,0,.806389177.2535221481.9725626969.6431180986l12.7664065555,30.0948436073c.3638192974.856534974,1.5755711517.8579687102,1.9422579214.0028674724l12.895337904-30.1020035458c.1661385507-.3881622144.5485964184-.6402549974.9711289607-.6402549974h8.6026268807c.7648807662,0,1.2762000439.7863518397.9639602798,1.4853331954l.001398767-.0028718435Z" style="fill:#fff;"/><path d="M58.0268524791,194.9955579344l-.1661516642-.0472608401c-3.980466888-1.1315500513-7.7417819559-2.2000681645-10.4345789105-3.8501236591-2.6870663811-1.6471880222-3.8844983582-3.6223869065-3.8844983582-6.4054087039,0-3.5249802694,1.9551396912-5.8081351938,3.5965971399-7.1029563235,2.4106219387-1.9021482776,5.7436738908-2.9491778328,9.3832437757-2.9491778328,6.4297647344,0,11.4300507882,2.2573651579,14.860500635,6.7104972718l1.3349395158,1.7331247699,5.1492547396-4.7381658598-1.1859795723-1.4624109012c-4.6851744462-5.7823454272-11.6563625469-8.8375148296-20.1601490543-8.8375148296-5.2452188983,0-10.1323534439,1.5039542811-13.7590328166,4.2354140299-4.0277320992,3.0336983289-6.2464235351,7.4409858543-6.2464235351,12.4097734236s2.1298872158,9.0810226802,6.5114068303,11.9356613481c3.608058287,2.3504705865,8.2602917703,3.6596290779,12.7592597304,4.9258104532l.1876358511.0529957848c3.7942604019,1.0728193218,8.0927063699,2.2888723846,11.0762676441,4.2640712689,3.0050454611,1.9895187615,4.3442774431,4.461734531,4.3442774431,8.0167882909,0,1.5999271821-.3595180888,4.6565303206-2.7701400276,7.140198495-2.4851062816,2.5610199895-6.471299372,3.8587085916-11.8454321342,3.8587085916-8.6026181384,0-13.8893760455-4.8813996009-16.2756506961-7.7919190106l-1.3206152674-1.6099458508-5.2165725872,4.6149869407,1.1702194022,1.4882006678c4.9472946402,6.2879647295,12.8351778094,9.894580538,21.6411854123,9.894580538,7.5111777309,0,13.2562809867-2.0138747919,17.0763311552-5.9871773702,3.9718688421-4.1294224603,4.5648586282-9.0437805087,4.5648586282-11.6062342344,0-12.9827083879-11.3083056052-16.2598970827-20.3936207516-18.8925339428l.0028674724.0000174846Z" style="fill:aqua;"/><polygon points="100.1604946452 175.5888197569 119.5371505899 175.5888197569 119.5371505899 230.4473425831 126.3035111188 230.4473425831 126.3035111188 175.5888197569 145.7661125535 175.5888197569 145.7661125535 168.9943327234 100.1604946452 168.9943327234 100.1604946452 175.5888197569" style="fill:aqua;"/><path d="M209.7916035499,206.6533542175c0,5.8754508558-1.4337711468,10.4345745394-4.2597700604,13.5513421436-2.8174139811,3.106731451-6.9668912633,4.6808863511-12.3367228169,4.6808863511s-9.5193088358-1.5755711517-12.3367228169-4.6808863511c-2.8259989136-3.1167676042-4.2597700604-7.6758912878-4.2597700604-13.5513421436v-37.6590214941h-6.7663605289v37.6590214941c0,7.5340912829,2.0654368405,13.7790788962,5.9714062722,18.0589037785,4.0406182403,4.4273598319,10.0550016286,6.7677942651,17.391447134,6.7677942651s13.3006830967-2.2659500904,17.3900133979-6.733419566c3.9632839096-4.3313869309,5.9728400084-10.418820926,5.9728400084-18.0932784776v-37.6590214941h-6.7663605289v37.6590214941Z" style="fill:aqua;"/><path d="M276.7605286921,171.4937719957c-3.8902333029-1.658640427-8.1886792709-2.4994217877-12.7750089726-2.4994217877h-19.057256242v61.4530098597h19.057256242c4.5892146587,0,8.8847931543-.8264614835,12.7649903039-2.4578958923,3.7040224457-1.5569500659,6.9597225825-3.8114477515,9.6768624541-6.7004786031,5.2595387754-5.5932845823,8.1557208234-13.2376686433,8.1557208234-21.5251708029s-2.8947483118-15.8631368225-8.1500033633-21.4979473001c-2.720007344-2.9162368698-5.9742737446-5.1950905858-9.6725787301-6.7720954736h.0000174846ZM263.9855197195,223.8528555496h-12.290895713v-48.2640357927h12.290895713c7.1588195807,0,13.1818053861,2.4378410704,17.4157856799,7.0485268025,3.9704351059,4.3228019984,6.1561833933,10.405934785,6.1561833933,17.1278844616s-2.1843145512,12.8623969411-6.1504484485,17.1422218234c-4.2125092203,4.5448038063-10.2369112773,6.9468364414-17.4215206246,6.9468364414v-.0014337362Z" style="fill:aqua;"/><path d="M459.5210473408,194.9955579344l-.1661385507-.0472608401c-3.9804712591-1.1315500513-7.7417906982-2.2000681645-10.4345920239-3.8501236591-2.6870663811-1.6471880222-3.8845158428-3.6223869065-3.8845158428-6.4054087039,0-3.5249802694,1.9551265778-5.8081351938,3.5966146245-7.1029563235,2.4106350522-1.9021482776,5.7436870042-2.9491778328,9.3832437757-2.9491778328,6.4297472498,0,11.4286257943,2.2573651579,14.860500635,6.7104972718l1.3349482581,1.7331247699,5.1492459973-4.7381658598-1.1859795723-1.4624109012c-4.685170075-5.7823454272-11.6563450623-8.8375148296-20.1601490543-8.8375148296-5.2452363828,0-10.1323534439,1.5039542811-13.7590415589,4.2354140299-4.0277495838,3.0336983289-6.2464388341,7.4409858543-6.2464388341,12.4097734236s2.1299025148,9.0810226802,6.5114002735,11.9356613481c3.6080495447,2.3504705865,8.2602786568,3.6596290779,12.7592728438,4.9258104532l.1876445934.0529957848c3.7942604019,1.0728193218,8.0941401061,2.2888723846,11.0762763864,4.2640712689,3.0050410899,1.9895187615,4.3442905565,4.461734531,4.3442905565,8.0167882909,0,1.5999271821-.3595180888,4.6565303206-2.770153141,7.140198495-2.4851193951,2.5610199895-6.4712906298,3.8587085916-11.8454233919,3.8587085916-8.6026268807,0-13.8893716744-4.8813996009-16.2756332115-7.7919190106l-1.3206108963-1.6099458508-5.2165616593,4.6149869407,1.1702084743,1.4882006678c4.9472990113,6.2879647295,12.8351909229,9.894580538,21.6411985258,9.894580538,7.5111689886,0,13.256289729-2.0138747919,17.0763224129-5.9871773702,3.9718688421-4.1294224603,4.5648761128-9.0437805087,4.5648761128-11.6062342344,0-12.9827083879-11.3082968629-16.2598970827-20.393603267-18.8925339428l.002797534.0000174846Z" style="fill:aqua;"/><rect x="321.0598643236" y="168.9943327234" width="6.7663605289" height="61.4530098597" style="fill:aqua;"/><path d="M344.0531809724,186.5676895061l-1.4738807906-.0100186687c-1.6959000831-.0100186687-3.080959169,1.2117518543-3.0780916966,2.7157061354,0,0-6.3939388145,8.6685088065.2205855563,23.7209377589l.0973891526-.0315072267c.4869807319.952507875,1.5655349984,1.6256994641,2.8116615518,1.632868145l8.2717485463.0515620486-.3766879538-28.0394385488c.0014337362-.012886141.0043012085-.0257897666.0071686809-.0386759076h-6.4784593106l-.0014337362-.0014337362Z" style="fill:#fff;"/><path d="M424.3041856102,186.5676895061l1.4738807906-.0100186687c1.6959000831-.0100186687,3.080959169,1.2117518543,3.0780916966,2.7157061354,0,0,6.3939388145,8.6685088065-.2205855563,23.7209377589l-.0973891526-.0315072267c-.4869807319.952507875-1.5655349984,1.6256994641-2.8116615518,1.632868145l-8.2717485463.0515620486.3766879538-28.0394385488c-.0014337362-.012886141-.0043012085-.0257897666-.0071686809-.0386759076h6.4784593106l.0014337362-.0014337362Z" style="fill:#fff;"/><path d="M384.3391043819,173.1352250732c-16.7383103668,0-27.3504758617,13.1144897241-27.3504758617,29.7654121224s10.6122004641,29.7654121224,27.3504758617,29.7654121224,27.3504758617-13.1144897241,27.3504758617-29.7654121224-10.6981197272-29.7654121224-27.3504758617-29.7654121224ZM369.6017651814,219.7119806845c-1.7660832174-2.0281946691-3.1425398863-4.4731869358-4.0921977735-7.2676786227-.9882988256-2.9076519374-1.4896169194-6.1189412218-1.4896169194-9.5436648663s.5013180937-6.7033460755,1.4896169194-9.6195829453c.9467904148-2.7944916869,2.3218133475-5.2337664934,4.0864628288-7.2490575369,3.6037483362-4.1194037917,8.7014497694-6.2979833981,14.743039176-6.2979833981s11.0590715522,2.1800133426,14.6857596672,6.305152079c1.7789518738,2.0224597244,3.1669134013,4.4646020033,4.1237050002,7.2562262178,1.0012024512,2.9191043422,1.5096892258,6.1504484485,1.5096892258,9.6052455835s-.5070530384,6.6202593155-1.5082554897,9.5293449891c-.9610928074,2.7916242145-2.3504531019,5.2394839535-4.1308736811,7.2734135674-3.64385798,4.1623809078-8.7200533706,6.3638828085-14.6800247225,6.3638828085s-11.1163860302-2.1972006922-14.7373042313-6.3552803915v-.0000174846Z" style="fill:aqua;"/><path d="M353.9434777865,181.7994326711c4.6479279036-9.8544883788,18.1090320909-17.0061392786,30.2280543085-17.0104404871h.0086024171c12.0774788376.0386759076,25.4254227744,7.1803081388,30.09912296,17.0104404871h5.3913026271c-4.7467507923-12.3667963075-20.5884165413-21.5079834534-35.4904605563-21.5495093487h-.0086024171c-14.943587395.0028674724-30.8840760327,9.1569407592-35.6079220153,21.5495093487h5.379902676Z" style="fill:#fff;"/></g></g></svg>